<svg id="Layer_1" data-name="Layer 1" xmlns="http://www.w3.org/2000/svg" viewBox="0 0 140 90"><defs><style>.cls-1{fill:#ed1b24;}.cls-2{fill:#fff;}.cls-3{fill:none;stroke:#fff;stroke-width:1.67px;}</style></defs><title>battleapp-logo</title><rect y="61.07" width="140" height="28.93"/><rect class="cls-1" width="140" height="61.07"/><polygon class="cls-2" points="120.9 8.67 128.73 8.67 128.73 44.46 135.37 44.46 135.37 53.49 120.9 53.49 120.9 8.67"/><ellipse class="cls-3" cx="133.07" cy="11.05" rx="2.98" ry="2.87"/><path class="cls-2" d="M131.91,12.53v-3h1.39a1.91,1.91,0,0,1,.64.08,0.69,0.69,0,0,1,.35.29,0.83,0.83,0,0,1,.13.45,0.74,0.74,0,0,1-.22.54,1.11,1.11,0,0,1-.67.28,1.07,1.07,0,0,1,.25.15,2.07,2.07,0,0,1,.34.4l0.54,0.82h-0.52l-0.41-.63q-0.18-.27-0.3-0.42a0.94,0.94,0,0,0-.21-0.2,0.63,0.63,0,0,0-.19-0.08h-0.71v1.34h-0.41Zm0.41-1.68h0.89a1.38,1.38,0,0,0,.44-0.06,0.47,0.47,0,0,0,.24-0.18,0.48,0.48,0,0,0,.08-0.27,0.44,0.44,0,0,0-.16-0.35,0.77,0.77,0,0,0-.51-0.14h-1v1Z"/><path class="cls-2" d="M5.76,53.33V8.67H16.32l3.75,18.72L24.32,8.67H34.54V48.89L41.18,8.67H51.57L58,48.89V8.83h13.8S76.61,9.66,79,16.06L78,8.67h8.35l3.92,23.15,4.09-23h23.5v8.37h-7V26.4h6.64v9.36H111V44.3h6.81v9H102.67v-43l-7.83,43H85.47L80.53,24.76s-0.85,7.88-5.45,11.49l6,17.07H72.86L67.07,38.39V53.33H50.55L49.7,49.06H43.4L42,53.33H26.37V36.91L22.28,53.33H18L14.27,37.07V53.16Zm43.09-13L46.46,26.73l-2,13.63h4.43ZM66.9,30C72.52,29.69,72,23,72,23c-0.85-6.57-5.11-6.24-5.11-6.24V30Z"/><path class="cls-2" d="M18.32,80.25Q10,80.25,10,73.61a11.38,11.38,0,0,1,.06-1.16l0.2,0a6.34,6.34,0,0,0,2.49,5.48V67.55a1.19,1.19,0,0,0-.4-0.88,1.29,1.29,0,0,0-.89-0.35H11.19v-0.2h6.23q3.44,0,5.06,1.52a2.65,2.65,0,0,1,.87,2,2.92,2.92,0,0,1-.87,2.15,2.22,2.22,0,0,1-.87.59h0.2a4,4,0,0,1,2.53.93,3,3,0,0,1,1.15,2.5,3.39,3.39,0,0,1-1.15,2.62Q22.39,80.25,18.32,80.25ZM19,70.35V69.76a3.51,3.51,0,0,0-.53-1.91,2,2,0,0,0-1.58-.71v12a4.08,4.08,0,0,0,2.83-1,3.19,3.19,0,0,0,1-2.46,2.9,2.9,0,0,0-1-2.43,3.47,3.47,0,0,0-2.21-.75V72.42a1.14,1.14,0,0,0,.72-0.23,1.38,1.38,0,0,0,.44-0.56A3.86,3.86,0,0,0,19,70.35Z"/><path class="cls-2" d="M40.7,79.74h0.16v0.2H33.19v-0.2h0.18A0.82,0.82,0,0,0,34,79.47,0.8,0.8,0,0,0,34.27,79a1.32,1.32,0,0,0-.1-0.48l-0.79-1.83H29L28.24,78.5a1.19,1.19,0,0,0-.1.41,1,1,0,0,0,.07.35,0.71,0.71,0,0,0,.3.34,0.91,0.91,0,0,0,.5.15h0.18v0.2H24.67v-0.2h0.18a1.81,1.81,0,0,0,.92-0.27,2.1,2.1,0,0,0,.76-0.8L31.25,68.6a12.09,12.09,0,0,0,1.15-2.94h0.18l6.42,13A1.93,1.93,0,0,0,40.7,79.74ZM29.49,75.68H33l-1.7-3.94Z"/><path class="cls-2" d="M47.16,67.1V78.52a1.22,1.22,0,0,0,.39.87,1.26,1.26,0,0,0,.9.35h0.26v0.2H41.45v-0.2h0.26a1.26,1.26,0,0,0,.9-0.35A1.2,1.2,0,0,0,43,78.54V67.1H41a2.65,2.65,0,0,0-1.9.7,2.5,2.5,0,0,0-.69,1.86V69.8l-0.2,0V65.76a5.12,5.12,0,0,0,1,.24,8.69,8.69,0,0,0,1.37.12h9A8.5,8.5,0,0,0,50.92,66a5.68,5.68,0,0,0,1-.24v4.06l-0.2,0V69.66a2.34,2.34,0,0,0-1.21-2.25,3.25,3.25,0,0,0-1.4-.32h-2Z"/><path class="cls-2" d="M61.69,67.1V78.52a1.22,1.22,0,0,0,.39.87,1.26,1.26,0,0,0,.9.35h0.26v0.2H56v-0.2h0.26a1.26,1.26,0,0,0,.9-0.35,1.2,1.2,0,0,0,.39-0.85V67.1h-2a2.65,2.65,0,0,0-1.9.7,2.5,2.5,0,0,0-.69,1.86V69.8l-0.2,0V65.76a5.12,5.12,0,0,0,1,.24,8.68,8.68,0,0,0,1.37.12h9A8.51,8.51,0,0,0,65.46,66a5.68,5.68,0,0,0,1-.24v4.06l-0.2,0V69.66a2.34,2.34,0,0,0-1.21-2.25,3.25,3.25,0,0,0-1.4-.32h-2Z"/><path class="cls-2" d="M67.54,79.74a1.3,1.3,0,0,0,1.3-1.24V67.57a1.21,1.21,0,0,0-.65-1.08,1.39,1.39,0,0,0-.65-0.16H67.28v-0.2h7.27v0.2H74.28a1.28,1.28,0,0,0-.91.36,1.17,1.17,0,0,0-.38.88V78.93h2.49A4,4,0,0,0,78.09,78a5.08,5.08,0,0,0,1.6-2.62h0.2l-0.77,4.57H67.28v-0.2h0.26Z"/><path class="cls-2" d="M80.74,79.74A1.3,1.3,0,0,0,82,78.5V67.57a1.29,1.29,0,0,0-1.3-1.24H80.47v-0.2h9A7.81,7.81,0,0,0,91,66a5.64,5.64,0,0,0,.86-0.22v4.06h-0.2V69.68a2.29,2.29,0,0,0-1.17-2.21,2.9,2.9,0,0,0-1.36-.34H86.18v5.5h2.21A2.21,2.21,0,0,0,90,72a2.09,2.09,0,0,0,.61-1.55V70.39h0.2v5.48h-0.2v-0.1A2.06,2.06,0,0,0,90,74.25a2.19,2.19,0,0,0-1.56-.62H86.18v5.3h2.49A4,4,0,0,0,91.28,78a5.08,5.08,0,0,0,1.6-2.62h0.2l-0.77,4.57H80.47v-0.2h0.26Z"/><path class="cls-2" d="M95.75,65.46a6.73,6.73,0,0,1,2.53-.53,3.72,3.72,0,0,1,2.08.73,5.31,5.31,0,0,1,1.32,1.54,17.48,17.48,0,0,1,1.23,2.86l2.47,6.82a18.71,18.71,0,0,0,1.73,3.64,11.19,11.19,0,0,0,1.61,2,4.34,4.34,0,0,0,1.52,1,4.14,4.14,0,0,0,1.31.28,4.87,4.87,0,0,0,.92-0.08l0,0.2a6.15,6.15,0,0,1-1.9.32,4.15,4.15,0,0,1-1.86-.46A6.46,6.46,0,0,1,107,82.46a13.44,13.44,0,0,1-3-5.23L103.24,75H97.7L96.3,78.5a1.19,1.19,0,0,0-.1.47,0.82,0.82,0,0,0,.21.5,0.79,0.79,0,0,0,.66.27h0.16v0.2H93.16v-0.2h0.18a1.8,1.8,0,0,0,1-.29,2.16,2.16,0,0,0,.77-0.86l5-11.71a3.25,3.25,0,0,0-2.71-1.52,4.65,4.65,0,0,0-1.56.3Zm2.17,8.93H103l-1.6-4.59a17.5,17.5,0,0,0-.85-2.07Z"/><path class="cls-2" d="M118.42,69.94a3.65,3.65,0,0,1-.36,1.62,3.75,3.75,0,0,1-2.35,2,3.26,3.26,0,0,1-1,.2,4.81,4.81,0,0,1-2.17-.45v-0.2a4,4,0,0,0,2.73-.32,2.93,2.93,0,0,0,1.52-1.81,2.55,2.55,0,0,0,.12-0.75V69.74a3.41,3.41,0,0,0-.75-2.2,2.49,2.49,0,0,0-2-.82h-2.33V78.5a1.3,1.3,0,0,0,1.3,1.24h0.26v0.2H109v-0.2h0.26a1.3,1.3,0,0,0,1.3-1.24v-11a1.29,1.29,0,0,0-1.3-1.14H109l0-.2h5.28a4.37,4.37,0,0,1,3.06,1A3.59,3.59,0,0,1,118.42,69.94Z"/><path class="cls-2" d="M130,69.94a3.65,3.65,0,0,1-.36,1.62,3.75,3.75,0,0,1-2.35,2,3.26,3.26,0,0,1-1,.2,4.81,4.81,0,0,1-2.17-.45v-0.2a4,4,0,0,0,2.73-.32,2.93,2.93,0,0,0,1.52-1.81,2.55,2.55,0,0,0,.12-0.75V69.74a3.41,3.41,0,0,0-.75-2.2,2.49,2.49,0,0,0-2-.82h-2.33V78.5a1.3,1.3,0,0,0,1.3,1.24H125v0.2h-4.43v-0.2h0.26a1.3,1.3,0,0,0,1.3-1.24v-11a1.29,1.29,0,0,0-1.3-1.14h-0.24l0-.2h5.28a4.37,4.37,0,0,1,3.06,1A3.59,3.59,0,0,1,130,69.94Z"/></svg>